<svg width="30" height="30" viewBox="0 0 30 30" fill="none" xmlns="http://www.w3.org/2000/svg">
<path d="M15.0002 21.6668C13.1557 21.6668 11.5835 21.0168 10.2835 19.7168C8.9835 18.4168 8.3335 16.8446 8.3335 15.0002C8.3335 13.1557 8.9835 11.5835 10.2835 10.2835C11.5835 8.9835 13.1557 8.3335 15.0002 8.3335C16.8446 8.3335 18.4168 8.9835 19.7168 10.2835C21.0168 11.5835 21.6668 13.1557 21.6668 15.0002C21.6668 16.8446 21.0168 18.4168 19.7168 19.7168C18.4168 21.0168 16.8446 21.6668 15.0002 21.6668ZM1.66683 16.3335C1.28905 16.3335 0.972385 16.2057 0.716829 15.9502C0.461274 15.6946 0.333496 15.3779 0.333496 15.0002C0.333496 14.6224 0.461274 14.3057 0.716829 14.0502C0.972385 13.7946 1.28905 13.6668 1.66683 13.6668H4.3335C4.71127 13.6668 5.02794 13.7946 5.2835 14.0502C5.53905 14.3057 5.66683 14.6224 5.66683 15.0002C5.66683 15.3779 5.53905 15.6946 5.2835 15.9502C5.02794 16.2057 4.71127 16.3335 4.3335 16.3335H1.66683ZM25.6668 16.3335C25.2891 16.3335 24.9724 16.2057 24.7168 15.9502C24.4613 15.6946 24.3335 15.3779 24.3335 15.0002C24.3335 14.6224 24.4613 14.3057 24.7168 14.0502C24.9724 13.7946 25.2891 13.6668 25.6668 13.6668H28.3335C28.7113 13.6668 29.0279 13.7946 29.2835 14.0502C29.5391 14.3057 29.6668 14.6224 29.6668 15.0002C29.6668 15.3779 29.5391 15.6946 29.2835 15.9502C29.0279 16.2057 28.7113 16.3335 28.3335 16.3335H25.6668ZM15.0002 5.66683C14.6224 5.66683 14.3057 5.53905 14.0502 5.2835C13.7946 5.02794 13.6668 4.71127 13.6668 4.3335V1.66683C13.6668 1.28905 13.7946 0.972385 14.0502 0.716829C14.3057 0.461274 14.6224 0.333496 15.0002 0.333496C15.3779 0.333496 15.6946 0.461274 15.9502 0.716829C16.2057 0.972385 16.3335 1.28905 16.3335 1.66683V4.3335C16.3335 4.71127 16.2057 5.02794 15.9502 5.2835C15.6946 5.53905 15.3779 5.66683 15.0002 5.66683ZM15.0002 29.6668C14.6224 29.6668 14.3057 29.5391 14.0502 29.2835C13.7946 29.0279 13.6668 28.7113 13.6668 28.3335V25.6668C13.6668 25.2891 13.7946 24.9724 14.0502 24.7168C14.3057 24.4613 14.6224 24.3335 15.0002 24.3335C15.3779 24.3335 15.6946 24.4613 15.9502 24.7168C16.2057 24.9724 16.3335 25.2891 16.3335 25.6668V28.3335C16.3335 28.7113 16.2057 29.0279 15.9502 29.2835C15.6946 29.5391 15.3779 29.6668 15.0002 29.6668ZM6.5335 8.40016L5.10016 7.00016C4.8335 6.75572 4.70572 6.44461 4.71683 6.06683C4.72794 5.68905 4.85572 5.36683 5.10016 5.10016C5.36683 4.8335 5.68905 4.70016 6.06683 4.70016C6.44461 4.70016 6.75572 4.8335 7.00016 5.10016L8.40016 6.5335C8.64461 6.80016 8.76683 7.11127 8.76683 7.46683C8.76683 7.82239 8.64461 8.1335 8.40016 8.40016C8.15572 8.66683 7.85016 8.79461 7.4835 8.7835C7.11683 8.77239 6.80016 8.64461 6.5335 8.40016ZM23.0002 24.9002L21.6002 23.4668C21.3557 23.2002 21.2335 22.8835 21.2335 22.5168C21.2335 22.1502 21.3557 21.8446 21.6002 21.6002C21.8446 21.3335 22.1502 21.2057 22.5168 21.2168C22.8835 21.2279 23.2002 21.3557 23.4668 21.6002L24.9002 23.0002C25.1668 23.2446 25.2946 23.5557 25.2835 23.9335C25.2724 24.3113 25.1446 24.6335 24.9002 24.9002C24.6335 25.1668 24.3113 25.3002 23.9335 25.3002C23.5557 25.3002 23.2446 25.1668 23.0002 24.9002ZM21.6002 8.40016C21.3335 8.15572 21.2057 7.85016 21.2168 7.4835C21.2279 7.11683 21.3557 6.80016 21.6002 6.5335L23.0002 5.10016C23.2446 4.8335 23.5557 4.70572 23.9335 4.71683C24.3113 4.72794 24.6335 4.85572 24.9002 5.10016C25.1668 5.36683 25.3002 5.68905 25.3002 6.06683C25.3002 6.44461 25.1668 6.75572 24.9002 7.00016L23.4668 8.40016C23.2002 8.64461 22.8891 8.76683 22.5335 8.76683C22.1779 8.76683 21.8668 8.64461 21.6002 8.40016ZM5.10016 24.9002C4.8335 24.6335 4.70016 24.3113 4.70016 23.9335C4.70016 23.5557 4.8335 23.2446 5.10016 23.0002L6.5335 21.6002C6.80016 21.3557 7.11683 21.2335 7.4835 21.2335C7.85016 21.2335 8.15572 21.3557 8.40016 21.6002C8.66683 21.8446 8.79461 22.1502 8.7835 22.5168C8.77239 22.8835 8.64461 23.2002 8.40016 23.4668L7.00016 24.9002C6.75572 25.1668 6.44461 25.2946 6.06683 25.2835C5.68905 25.2724 5.36683 25.1446 5.10016 24.9002Z" fill="#FF9052"/>
</svg>
