<svg width="22" height="27" viewBox="0 0 22 27" fill="none" xmlns="http://www.w3.org/2000/svg">
<path d="M8.39985 20.9998H1.49985C0.966516 20.9998 0.566516 20.7665 0.29985 20.2998C0.0331831 19.8332 0.0554053 19.3776 0.366516 18.9332L4.33318 12.9998H4.23318C3.69985 12.9998 3.30541 12.7609 3.04985 12.2832C2.79429 11.8054 2.82207 11.3443 3.13318 10.8998L9.89985 1.23317C10.0332 1.05539 10.1999 0.916504 10.3998 0.816504C10.5998 0.716504 10.7999 0.666504 10.9999 0.666504C11.1999 0.666504 11.3998 0.716504 11.5998 0.816504C11.7999 0.916504 11.9665 1.05539 12.0998 1.23317L18.8665 10.8998C19.1776 11.3443 19.2054 11.8054 18.9499 12.2832C18.6943 12.7609 18.2999 12.9998 17.7665 12.9998H17.6665L21.6332 18.9332C21.9443 19.3776 21.9665 19.8332 21.6999 20.2998C21.4332 20.7665 21.0332 20.9998 20.4999 20.9998H13.5998V24.9998C13.5998 25.3776 13.4721 25.6943 13.2165 25.9498C12.961 26.2054 12.6443 26.3332 12.2665 26.3332H9.73318C9.35541 26.3332 9.03874 26.2054 8.78318 25.9498C8.52763 25.6943 8.39985 25.3776 8.39985 24.9998V20.9998ZM3.99985 18.3332H9.33318H6.79985H15.1999H12.6665H17.9999H3.99985ZM3.99985 18.3332H17.9999L12.6665 10.3332H15.1999L10.9999 4.33317L6.79985 10.3332H9.33318L3.99985 18.3332Z" fill="#FF9052"/>
</svg>
