<svg width="24" height="28" viewBox="0 0 24 28" fill="none" xmlns="http://www.w3.org/2000/svg">
<path d="M15.3333 21.9998C14.4 21.9998 13.6111 21.6776 12.9667 21.0332C12.3222 20.3887 12 19.5998 12 18.6665C12 17.7332 12.3222 16.9443 12.9667 16.2998C13.6111 15.6554 14.4 15.3332 15.3333 15.3332C16.2667 15.3332 17.0556 15.6554 17.7 16.2998C18.3444 16.9443 18.6667 17.7332 18.6667 18.6665C18.6667 19.5998 18.3444 20.3887 17.7 21.0332C17.0556 21.6776 16.2667 21.9998 15.3333 21.9998ZM2.66667 27.3332C1.93333 27.3332 1.30556 27.0721 0.783333 26.5498C0.261111 26.0276 0 25.3998 0 24.6665V5.99984C0 5.2665 0.261111 4.63873 0.783333 4.1165C1.30556 3.59428 1.93333 3.33317 2.66667 3.33317H4V1.99984C4 1.62206 4.12778 1.30539 4.38333 1.04984C4.63889 0.794282 4.95556 0.666504 5.33333 0.666504C5.71111 0.666504 6.02778 0.794282 6.28333 1.04984C6.53889 1.30539 6.66667 1.62206 6.66667 1.99984V3.33317H17.3333V1.99984C17.3333 1.62206 17.4611 1.30539 17.7167 1.04984C17.9722 0.794282 18.2889 0.666504 18.6667 0.666504C19.0444 0.666504 19.3611 0.794282 19.6167 1.04984C19.8722 1.30539 20 1.62206 20 1.99984V3.33317H21.3333C22.0667 3.33317 22.6944 3.59428 23.2167 4.1165C23.7389 4.63873 24 5.2665 24 5.99984V24.6665C24 25.3998 23.7389 26.0276 23.2167 26.5498C22.6944 27.0721 22.0667 27.3332 21.3333 27.3332H2.66667ZM2.66667 24.6665H21.3333V11.3332H2.66667V24.6665ZM2.66667 8.6665H21.3333V5.99984H2.66667V8.6665Z" fill="#FF9052"/>
</svg>
