<svg width="22" height="22" viewBox="0 0 22 22" fill="none" xmlns="http://www.w3.org/2000/svg">
<path d="M3.00016 21.6666C2.26683 21.6666 1.63905 21.4055 1.11683 20.8833C0.594607 20.3611 0.333496 19.7333 0.333496 19V13.6666C0.333496 12.9333 0.594607 12.3055 1.11683 11.7833C1.63905 11.2611 2.26683 11 3.00016 11C3.7335 11 4.36127 11.2611 4.8835 11.7833C5.40572 12.3055 5.66683 12.9333 5.66683 13.6666V19C5.66683 19.7333 5.40572 20.3611 4.8835 20.8833C4.36127 21.4055 3.7335 21.6666 3.00016 21.6666ZM11.0002 21.6666C10.2668 21.6666 9.63905 21.4055 9.11683 20.8833C8.59461 20.3611 8.3335 19.7333 8.3335 19V2.99998C8.3335 2.26665 8.59461 1.63887 9.11683 1.11665C9.63905 0.594424 10.2668 0.333313 11.0002 0.333313C11.7335 0.333313 12.3613 0.594424 12.8835 1.11665C13.4057 1.63887 13.6668 2.26665 13.6668 2.99998V19C13.6668 19.7333 13.4057 20.3611 12.8835 20.8833C12.3613 21.4055 11.7335 21.6666 11.0002 21.6666ZM19.0002 21.6666C18.2668 21.6666 17.6391 21.4055 17.1168 20.8833C16.5946 20.3611 16.3335 19.7333 16.3335 19V9.66665C16.3335 8.93331 16.5946 8.30553 17.1168 7.78331C17.6391 7.26109 18.2668 6.99998 19.0002 6.99998C19.7335 6.99998 20.3613 7.26109 20.8835 7.78331C21.4057 8.30553 21.6668 8.93331 21.6668 9.66665V19C21.6668 19.7333 21.4057 20.3611 20.8835 20.8833C20.3613 21.4055 19.7335 21.6666 19.0002 21.6666Z" fill="#FF9052"/>
</svg>
