<svg width="180" height="38" viewBox="0 0 180 38" fill="none" xmlns="http://www.w3.org/2000/svg">
<path d="M78.2438 32.7019C77.1881 32.0162 76.353 31.11 75.7446 29.9772C75.1362 28.8444 74.832 27.6401 74.832 26.3642C74.832 25.0108 75.1482 23.7707 75.7864 22.6379C76.4246 21.5051 77.2835 20.6168 78.3571 19.9669C79.4308 19.323 80.5819 18.9951 81.7987 18.9951C82.9022 18.9951 83.8386 19.2216 84.614 19.6807C85.3834 20.1398 86.0097 20.8731 86.4869 21.8807V14.6845L92.5112 13.8021V33.5008H86.4869V30.8477C85.5922 32.7675 84.0235 33.7333 81.7749 33.7333C80.4805 33.7333 79.3055 33.3935 78.2498 32.7078L78.2438 32.7019ZM85.6698 28.3615C86.2125 27.7891 86.4809 27.1273 86.4809 26.3642V26.2509C86.4809 25.5116 86.1946 24.8677 85.622 24.3252C85.0494 23.7826 84.3933 23.5143 83.6537 23.5143C82.8544 23.5143 82.1804 23.7945 81.6377 24.355C81.0949 24.9154 80.8265 25.5891 80.8265 26.3702C80.8265 27.1512 81.1068 27.8428 81.6675 28.3973C82.2282 28.9517 82.8902 29.226 83.6537 29.226C84.453 29.226 85.127 28.9398 85.6698 28.3674V28.3615Z" fill="#333333"/>
<path d="M98.0822 32.7019C97.0264 32.0162 96.1914 31.11 95.583 29.9772C94.9746 28.8444 94.6704 27.6401 94.6704 26.3642C94.6704 25.0108 94.9865 23.7707 95.6247 22.6379C96.263 21.5051 97.1219 20.6168 98.1955 19.9669C99.2691 19.323 100.42 18.9951 101.637 18.9951C102.741 18.9951 103.677 19.2216 104.452 19.6807C105.222 20.1398 105.848 20.8731 106.325 21.8807V14.6845L112.35 13.8021V33.5008H106.325V30.8477C105.431 32.7675 103.862 33.7333 101.613 33.7333C100.319 33.7333 99.1439 33.3935 98.0881 32.7078L98.0822 32.7019ZM105.508 28.3615C106.051 27.7891 106.319 27.1273 106.319 26.3642V26.2509C106.319 25.5116 106.033 24.8677 105.46 24.3252C104.888 23.7826 104.232 23.5143 103.492 23.5143C102.693 23.5143 102.019 23.7945 101.476 24.355C100.933 24.9154 100.665 25.5891 100.665 26.3702C100.665 27.1512 100.945 27.8428 101.506 28.3973C102.067 28.9517 102.729 29.226 103.492 29.226C104.291 29.226 104.965 28.9398 105.508 28.3674V28.3615Z" fill="#333333"/>
<path d="M115.636 19.2038H121.374V22.1133C122.018 20.9924 122.758 20.1577 123.587 19.6152C124.416 19.0726 125.4 18.8043 126.546 18.8043C127.691 18.8043 128.645 19.0845 129.474 19.645C130.303 20.2054 130.924 20.9626 131.347 21.9165C132.564 19.8417 134.335 18.8043 136.662 18.8043C137.765 18.8043 138.731 19.1024 139.56 19.6867C140.389 20.277 141.034 21.1295 141.487 22.2444C141.94 23.3593 142.173 24.665 142.173 26.1675V33.3041H136.149V26.1675C136.149 25.1957 135.982 24.4623 135.648 23.9675C135.314 23.4726 134.854 23.2282 134.264 23.2282C133.614 23.2282 133.059 23.5024 132.594 24.0569C132.128 24.6114 131.896 25.2732 131.896 26.0542V33.3041H125.925V26.1675C125.925 25.1957 125.758 24.4623 125.424 23.9675C125.09 23.4726 124.619 23.2282 124.011 23.2282C123.36 23.2282 122.812 23.5024 122.352 24.0569C121.893 24.6114 121.666 25.2732 121.666 26.0542V33.3041H115.642V19.2038H115.636Z" fill="#333333"/>
<path d="M148.167 32.5946C146.92 31.9686 145.948 31.0981 145.256 29.9832C144.558 28.8683 144.212 27.5924 144.212 26.1436C144.212 24.6949 144.564 23.419 145.268 22.3041C145.972 21.1892 146.95 20.3306 148.197 19.7225C149.443 19.1144 150.869 18.8103 152.467 18.8103C154.066 18.8103 155.521 19.1203 156.768 19.7404C158.015 20.3604 158.981 21.219 159.667 22.322C160.353 23.4249 160.693 24.7008 160.693 26.1496C160.693 27.5984 160.347 28.9041 159.649 30.019C158.951 31.1339 157.985 31.9984 156.738 32.6184C155.492 33.2385 154.06 33.5485 152.438 33.5485C150.815 33.5485 149.414 33.2325 148.167 32.6065V32.5946ZM154.424 28.3854C154.931 27.8071 155.181 27.0558 155.181 26.1436C155.181 25.2314 154.931 24.4862 154.424 23.9019C153.917 23.3236 153.279 23.0314 152.497 23.0314C151.716 23.0314 151.072 23.3236 150.571 23.9019C150.064 24.4802 149.813 25.2314 149.813 26.1436C149.813 27.0558 150.064 27.8071 150.571 28.3854C151.078 28.9637 151.716 29.2558 152.497 29.2558C153.279 29.2558 153.923 28.9637 154.424 28.3854Z" fill="#333333"/>
<path d="M162.619 19.2038H168.357V22.1133C169.461 19.9073 171.214 18.8043 173.612 18.8043C175.437 18.8043 176.875 19.4542 177.913 20.7599C178.95 22.0656 179.469 23.8661 179.469 26.1675V33.3041H173.469V25.5653C173.469 24.7485 173.29 24.1165 172.938 23.6813C172.586 23.2461 172.097 23.0255 171.465 23.0255C171.006 23.0255 170.558 23.1745 170.123 23.4667C169.687 23.7648 169.329 24.1881 169.049 24.7366C168.775 25.291 168.638 25.9171 168.638 26.6206V33.2981H162.613V19.1978L162.619 19.2038Z" fill="#333333"/>
<path d="M71.7783 28.8145C70.3468 29.4286 69.0048 29.7327 67.7701 29.7327C66.9291 29.7327 66.2551 29.5836 65.7421 29.2915C65.2292 28.9994 64.8593 28.5164 64.6267 27.8487L71.5278 26.9544L73.1979 26.7397C73.2396 26.5847 73.2575 26.3403 73.2575 25.9945C73.2575 24.6828 73.007 23.4964 72.512 22.4411C72.4583 22.3278 72.3986 22.2145 72.339 22.1072C71.8499 21.2069 71.158 20.4855 70.2693 19.9311C69.2672 19.311 68.0683 19.001 66.6547 19.001C65.2411 19.001 63.8573 19.305 62.6584 19.9132C61.4595 20.5213 60.5052 21.3858 59.8013 22.5126C59.0975 23.6335 58.7456 24.9213 58.7456 26.3641C58.7456 27.8069 59.0916 29.0351 59.7715 30.15C60.4575 31.2649 61.4118 32.1354 62.6405 32.7733C63.8692 33.4113 65.2709 33.7332 66.8515 33.7332C68.963 33.7332 71.4801 33.1311 73.2516 32.35L71.7783 28.8205V28.8145ZM65.0264 23.2221C65.426 22.7094 65.9688 22.453 66.6547 22.453C67.7999 22.453 68.5216 23.0552 68.8258 24.2536L64.4001 25.2254C64.418 24.4086 64.6267 23.7408 65.0264 23.2281V23.2221Z" fill="#333333"/>
<path d="M20.1422 27.8369C19.7485 27.8369 19.3847 27.9442 19.0566 28.1171C19.4384 28.2125 19.7247 28.5404 19.7247 28.9458C19.7247 29.4287 19.337 29.8163 18.8538 29.8163C18.4661 29.8163 18.15 29.5599 18.0367 29.2082C17.9114 29.4884 17.8398 29.7984 17.8398 30.1263C17.8398 31.3962 18.8717 32.4277 20.1422 32.4277C21.4127 32.4277 22.4445 31.3962 22.4445 30.1263C22.4445 28.8564 21.4127 27.825 20.1422 27.825V27.8369Z" fill="#333333"/>
<path d="M35.4475 28.9517C35.4475 29.4346 35.0598 29.8222 34.5766 29.8222C34.0935 29.8222 33.7058 29.4346 33.7058 28.9517C33.7058 28.4688 34.0816 28.0991 34.5528 28.0872C34.2426 27.9322 33.9026 27.8428 33.5328 27.8428C32.2623 27.8428 31.2305 28.8742 31.2305 30.1441C31.2305 31.4141 32.2623 32.4455 33.5328 32.4455C34.8033 32.4455 35.8352 31.4141 35.8352 30.1441C35.8352 29.6612 35.686 29.2081 35.4236 28.8384C35.4236 28.8802 35.4475 28.9159 35.4475 28.9577V28.9517Z" fill="#333333"/>
<path d="M38.9071 0L32.2924 11.7572L23.6496 6.58212L16.1461 18.5301L10.4082 11.9957L0.530762 32.4575C0.530762 32.4575 14.6132 38.6223 26.7095 37.9485C41.8537 37.2808 53.9618 31.6109 53.9618 31.6109L38.9071 0ZM23.6377 30.1204C23.2619 32.2965 20.7985 33.6857 18.1264 33.2266C15.4542 32.7675 13.5933 30.6331 13.9631 28.4629C14.3389 26.2867 16.8022 24.8976 19.4744 25.3567C22.1465 25.8157 24.0075 27.9502 23.6377 30.1204ZM36.396 32.7675C33.7656 33.5784 31.0994 32.529 30.4493 30.4244C29.7992 28.3138 31.4036 25.9469 34.04 25.1361C36.6704 24.3252 39.3366 25.3745 39.9867 27.4792C40.6369 29.5897 39.0324 31.9567 36.396 32.7675Z" fill="#333333"/>
</svg>
