<svg width="32" height="32" viewBox="0 0 32 32" fill="none" xmlns="http://www.w3.org/2000/svg">
<path d="M14.6667 19.3332L6.76672 18.3332C6.21117 18.2666 5.85006 17.9666 5.68339 17.4332C5.51673 16.8999 5.63339 16.4444 6.03339 16.0666L19.6667 2.99996C19.7778 2.88885 19.9111 2.80551 20.0667 2.74996C20.2222 2.6944 20.4333 2.66663 20.7 2.66663C21.1445 2.66663 21.4833 2.85551 21.7167 3.23329C21.95 3.61107 21.9556 3.99996 21.7333 4.39995L17.3334 12.6666L25.2333 13.6666C25.7889 13.7333 26.15 14.0333 26.3167 14.5666C26.4833 15.0999 26.3667 15.5555 25.9667 15.9333L12.3334 28.9999C12.2223 29.111 12.0889 29.1943 11.9334 29.2499C11.7778 29.3054 11.5667 29.3332 11.3 29.3332C10.8556 29.3332 10.5167 29.1443 10.2834 28.7665C10.05 28.3888 10.0445 27.9999 10.2667 27.5999L14.6667 19.3332Z" fill="#FF9052"/>
</svg>
