<svg width="27" height="30" viewBox="0 0 27 30" fill="none" xmlns="http://www.w3.org/2000/svg">
<path d="M11.9998 29.6668C10.8665 29.6668 9.86092 29.3279 8.98314 28.6502C8.10536 27.9724 7.51092 27.1002 7.1998 26.0335C7.06647 25.5224 6.78869 25.1113 6.36647 24.8002C5.94425 24.4891 5.46647 24.3335 4.93314 24.3335C4.57758 24.3335 4.24425 24.4002 3.93314 24.5335C3.62203 24.6668 3.35536 24.8668 3.13314 25.1335C3.02203 25.2891 2.88314 25.4113 2.71647 25.5002C2.5498 25.5891 2.35536 25.6335 2.13314 25.6335C1.75536 25.6335 1.43869 25.5057 1.18314 25.2502C0.927582 24.9946 0.799805 24.6779 0.799805 24.3002C0.799805 24.1224 0.822027 23.9668 0.866471 23.8335C0.910916 23.7002 0.988694 23.5779 1.0998 23.4668C1.56647 22.8891 2.13869 22.4446 2.81647 22.1335C3.49425 21.8224 4.1998 21.6668 4.93314 21.6668C6.06647 21.6668 7.07758 22.0002 7.96647 22.6668C8.85536 23.3335 9.45536 24.2113 9.76647 25.3002C9.8998 25.8113 10.1776 26.2224 10.5998 26.5335C11.022 26.8446 11.4887 27.0002 11.9998 27.0002C12.422 27.0002 12.7998 26.8891 13.1331 26.6668C13.4665 26.4446 13.7554 26.1668 13.9998 25.8335L14.0331 25.7668L4.83314 13.0668C4.65536 12.8224 4.52758 12.5668 4.4498 12.3002C4.37203 12.0335 4.33314 11.7668 4.33314 11.5002C4.33314 11.1446 4.3998 10.8057 4.53314 10.4835C4.66647 10.1613 4.86647 9.86683 5.13314 9.60016L13.7998 1.10016C14.0442 0.855718 14.3331 0.666829 14.6665 0.533496C14.9998 0.400163 15.3331 0.333496 15.6665 0.333496C15.9998 0.333496 16.3331 0.400163 16.6665 0.533496C16.9998 0.666829 17.2887 0.855718 17.5331 1.10016L26.1998 9.60016C26.4665 9.86683 26.6665 10.1613 26.7998 10.4835C26.9331 10.8057 26.9998 11.1446 26.9998 11.5002C26.9998 11.7668 26.9609 12.0335 26.8831 12.3002C26.8054 12.5668 26.6776 12.8224 26.4998 13.0668L15.6665 28.0668C15.2665 28.6224 14.7331 29.0279 14.0665 29.2835C13.3998 29.5391 12.7109 29.6668 11.9998 29.6668Z" fill="#FF9052"/>
</svg>
