<svg width="24" height="25" viewBox="0 0 24 25" fill="none" xmlns="http://www.w3.org/2000/svg">
<path d="M21.2 24.0668L14.6 17.4668C14.3556 17.2224 14.2333 16.9112 14.2333 16.5335C14.2333 16.1557 14.3556 15.8446 14.6 15.6001C14.8444 15.3557 15.1556 15.2335 15.5333 15.2335C15.9111 15.2335 16.2222 15.3557 16.4667 15.6001L23.0667 22.2001C23.3111 22.4446 23.4333 22.7557 23.4333 23.1335C23.4333 23.5112 23.3111 23.8224 23.0667 24.0668C22.8222 24.3112 22.5111 24.4335 22.1333 24.4335C21.7556 24.4335 21.4444 24.3112 21.2 24.0668ZM2.03333 21.6668C1.34444 20.5557 0.833333 19.3946 0.5 18.1835C0.166667 16.9724 0 15.7335 0 14.4668C0 12.7335 0.322222 11.0446 0.966667 9.40013C1.61111 7.75569 2.6 6.2668 3.93333 4.93346C5.26667 3.60013 6.76111 2.60569 8.41667 1.95013C10.0722 1.29457 11.7667 0.966797 13.5 0.966797C14.7667 0.966797 16.0056 1.13902 17.2167 1.48346C18.4278 1.82791 19.5778 2.34457 20.6667 3.03346C21.3556 3.47791 21.7222 4.11124 21.7667 4.93346C21.8111 5.75569 21.5222 6.47791 20.9 7.10013L6.1 21.9001C5.47778 22.5224 4.75 22.8112 3.91667 22.7668C3.08333 22.7224 2.45556 22.3557 2.03333 21.6668ZM4.2 20.0001L6 18.2001C5.64444 17.7335 5.30556 17.2557 4.98333 16.7668C4.66111 16.2779 4.36667 15.789 4.1 15.3001C3.83333 14.8112 3.6 14.3224 3.4 13.8335C3.2 13.3446 3.02222 12.8668 2.86667 12.4001C2.62222 13.7112 2.60556 15.0224 2.81667 16.3335C3.02778 17.6446 3.48889 18.8668 4.2 20.0001ZM7.93333 16.3335L15.3333 8.8668C14.3778 8.13346 13.4167 7.53902 12.45 7.08346C11.4833 6.62791 10.5778 6.3168 9.73333 6.15013C8.88889 5.98346 8.12778 5.95569 7.45 6.0668C6.77222 6.17791 6.24444 6.42235 5.86667 6.80013C5.48889 7.20013 5.24444 7.73902 5.13333 8.4168C5.02222 9.09457 5.05 9.86124 5.21667 10.7168C5.38333 11.5724 5.69444 12.4779 6.15 13.4335C6.60556 14.389 7.2 15.3557 7.93333 16.3335ZM19.0667 5.20013C17.8889 4.48902 16.6444 4.02235 15.3333 3.80013C14.0222 3.57791 12.7111 3.60013 11.4 3.8668C11.8889 4.02235 12.3778 4.20013 12.8667 4.40013C13.3556 4.60013 13.8444 4.82791 14.3333 5.08346C14.8222 5.33902 15.3056 5.62791 15.7833 5.95013C16.2611 6.27235 16.7333 6.62235 17.2 7.00013L19.0667 5.20013Z" fill="#FF9052"/>
</svg>
