<svg width="24" height="24" viewBox="0 0 24 24" fill="none" xmlns="http://www.w3.org/2000/svg">
<path d="M12 20C11.7958 20 11.5917 19.9633 11.3875 19.89C11.1833 19.8167 11.001 19.7068 10.8406 19.5602C9.89271 18.6805 9.05417 17.8228 8.325 16.9871C7.59583 16.1514 6.98698 15.3413 6.49844 14.5569C6.0099 13.7725 5.63802 13.0175 5.38281 12.2917C5.1276 11.566 5 10.8732 5 10.2135C5 8.01423 5.70365 6.26218 7.11094 4.95731C8.51823 3.65244 10.1479 3 12 3C13.8521 3 15.4818 3.65244 16.8891 4.95731C18.2964 6.26218 19 8.01423 19 10.2135C19 10.8732 18.8724 11.566 18.6172 12.2917C18.362 13.0175 17.9901 13.7725 17.5016 14.5569C17.013 15.3413 16.4042 16.1514 15.675 16.9871C14.9458 17.8228 14.1073 18.6805 13.1594 19.5602C12.999 19.7068 12.8167 19.8167 12.6125 19.89C12.4083 19.9633 12.2042 20 12 20ZM12 11.7969C12.4812 11.7969 12.8932 11.6246 13.2359 11.2801C13.5786 10.9355 13.75 10.5213 13.75 10.0375C13.75 9.55369 13.5786 9.1395 13.2359 8.79495C12.8932 8.45041 12.4812 8.27814 12 8.27814C11.5187 8.27814 11.1068 8.45041 10.7641 8.79495C10.4214 9.1395 10.25 9.55369 10.25 10.0375C10.25 10.5213 10.4214 10.9355 10.7641 11.2801C11.1068 11.6246 11.5187 11.7969 12 11.7969Z" fill="#9F98AE"/>
</svg>
