<svg width="60" height="81" viewBox="0 0 60 81" fill="none" xmlns="http://www.w3.org/2000/svg">
<path d="M30.989 2.9838C30.989 11.2037 25.3846 19.5312 18.4615 19.862C17.5342 19.9063 16.6581 20.2706 16.4835 21.1859C16.2551 22.3835 17.9278 22.6125 19.1209 22.8407C26.044 24.1644 30.989 29.8234 30.989 37.0714C30.989 39.388 31.2428 40.9402 32.967 41.0428C34.8776 41.1565 34.4367 38.3225 34.6154 36.4095C35.6043 25.8192 39.2307 19.2002 47.1428 18.8693C48.1799 18.8259 49.4505 18.8693 49.4505 17.5455C49.4505 16.4865 47.8021 16.5527 46.8132 16.5527C39.703 16.5527 34.945 9.60278 34.6154 2.9838C34.5492 1.65478 34.2882 0.112693 32.967 0.00515486C31.579 -0.107825 30.989 1.65999 30.989 2.9838Z" fill="#F3C408"/>
<path d="M8.5379 36.1137C7.85061 41.0413 4.93467 45.0759 1.3602 45.7518C0.739533 45.8692 0.133191 46.0285 0.0143804 46.6485C-0.14105 47.4595 0.997029 47.6147 1.80881 47.7692C6.51918 48.6658 8.5379 54.2916 8.5379 59.2005C8.5379 60.7695 8.71056 61.8207 9.88372 61.8902C11.1836 61.9673 10.8837 60.0478 11.0052 58.7522C11.6781 51.5796 14.1454 47.0967 19.5288 46.8726C20.2344 46.8433 21.0989 46.8726 21.0989 45.9761C21.0989 45.2588 19.9773 45.3036 19.3044 45.3036C14.4668 45.3036 11.2295 40.5966 11.0052 36.1137C10.9602 35.2136 10.7827 34.1692 9.88372 34.0964C8.9393 34.0198 8.66176 35.2257 8.5379 36.1137Z" fill="#F3C408"/>
<path d="M46.1259 77.1537C47.2428 69.1757 51.9812 62.6435 57.7897 61.5492C58.7983 61.3591 59.7836 61.1012 59.9766 60.0974C60.2292 58.7843 58.3798 58.5331 57.0607 58.2829C49.4063 56.8314 46.1259 47.7228 46.1259 39.7751C46.1259 37.2348 45.8454 35.5329 43.939 35.4203C41.8266 35.2956 42.314 38.4033 42.1165 40.5009C41.0231 52.1137 37.0137 59.3717 28.2658 59.7345C27.1192 59.7821 25.7143 59.7345 25.7143 61.1861C25.7143 62.3474 27.5368 62.2748 28.6303 62.2748C36.4914 62.2748 41.752 69.8957 42.1165 77.1537C42.1897 78.611 42.4782 80.302 43.939 80.4199C45.4737 80.5438 45.9246 78.5914 46.1259 77.1537Z" fill="#F3C408"/>
</svg>
