<svg width="26" height="26" viewBox="0 0 26 26" fill="none" xmlns="http://www.w3.org/2000/svg">
<path d="M4.66667 22.6667V18C4.66667 17.6222 4.79444 17.3056 5.05 17.05C5.30556 16.7944 5.62222 16.6667 6 16.6667H10.6667V12C10.6667 11.6222 10.7944 11.3056 11.05 11.05C11.3056 10.7944 11.6222 10.6667 12 10.6667H16.6667V6C16.6667 5.62222 16.7944 5.30556 17.05 5.05C17.3056 4.79444 17.6222 4.66667 18 4.66667H22.6667V1.33333C22.6667 0.955555 22.7944 0.638889 23.05 0.383333C23.3056 0.127778 23.6222 0 24 0C24.3778 0 24.6944 0.127778 24.95 0.383333C25.2056 0.638889 25.3333 0.955555 25.3333 1.33333V6C25.3333 6.37778 25.2056 6.69444 24.95 6.95C24.6944 7.20555 24.3778 7.33333 24 7.33333H19.3333V12C19.3333 12.3778 19.2056 12.6944 18.95 12.95C18.6944 13.2056 18.3778 13.3333 18 13.3333H13.3333V18C13.3333 18.3778 13.2056 18.6944 12.95 18.95C12.6944 19.2056 12.3778 19.3333 12 19.3333H7.33333V24C7.33333 24.3778 7.20555 24.6944 6.95 24.95C6.69444 25.2056 6.37778 25.3333 6 25.3333H1.33333C0.955555 25.3333 0.638889 25.2056 0.383333 24.95C0.127778 24.6944 0 24.3778 0 24C0 23.6222 0.127778 23.3056 0.383333 23.05C0.638889 22.7944 0.955555 22.6667 1.33333 22.6667H4.66667Z" fill="#FF9052"/>
</svg>
