<svg width="32" height="32" viewBox="0 0 32 32" fill="none" xmlns="http://www.w3.org/2000/svg">
<rect width="32" height="32" rx="2.56" fill="#FFE8DB"/>
<path d="M8.66667 26.6667V22C8.66667 21.6222 8.79444 21.3056 9.05 21.05C9.30556 20.7944 9.62222 20.6667 10 20.6667H14.6667V16C14.6667 15.6222 14.7944 15.3056 15.05 15.05C15.3056 14.7944 15.6222 14.6667 16 14.6667H20.6667V10C20.6667 9.62222 20.7944 9.30556 21.05 9.05C21.3056 8.79444 21.6222 8.66667 22 8.66667H26.6667V5.33333C26.6667 4.95556 26.7944 4.63889 27.05 4.38333C27.3056 4.12778 27.6222 4 28 4C28.3778 4 28.6944 4.12778 28.95 4.38333C29.2056 4.63889 29.3333 4.95556 29.3333 5.33333V10C29.3333 10.3778 29.2056 10.6944 28.95 10.95C28.6944 11.2056 28.3778 11.3333 28 11.3333H23.3333V16C23.3333 16.3778 23.2056 16.6944 22.95 16.95C22.6944 17.2056 22.3778 17.3333 22 17.3333H17.3333V22C17.3333 22.3778 17.2056 22.6944 16.95 22.95C16.6944 23.2056 16.3778 23.3333 16 23.3333H11.3333V28C11.3333 28.3778 11.2056 28.6944 10.95 28.95C10.6944 29.2056 10.3778 29.3333 10 29.3333H5.33333C4.95556 29.3333 4.63889 29.2056 4.38333 28.95C4.12778 28.6944 4 28.3778 4 28C4 27.6222 4.12778 27.3056 4.38333 27.05C4.63889 26.7944 4.95556 26.6667 5.33333 26.6667H8.66667Z" fill="#FF9052"/>
</svg>
