<svg width="18" height="24" viewBox="0 0 18 24" fill="none" xmlns="http://www.w3.org/2000/svg">
<path d="M5.8886 24C4.32415 24 2.98489 23.4778 1.87082 22.4333C0.756744 21.3889 0.199707 20.1333 0.199707 18.6667C0.199707 17.2 0.756744 15.9444 1.87082 14.9C2.98489 13.8556 4.32415 13.3333 5.8886 13.3333C6.43378 13.3333 6.93748 13.3944 7.39971 13.5167C7.86193 13.6389 8.30637 13.8222 8.73304 14.0667V1.33333C8.73304 0.955556 8.86934 0.638889 9.14193 0.383333C9.41452 0.127778 9.7523 0 10.1553 0H15.8442C16.2471 0 16.5849 0.127778 16.8575 0.383333C17.1301 0.638889 17.2664 0.955556 17.2664 1.33333V4C17.2664 4.37778 17.1301 4.69444 16.8575 4.95C16.5849 5.20556 16.2471 5.33333 15.8442 5.33333H11.5775V18.6667C11.5775 20.1333 11.0204 21.3889 9.90637 22.4333C8.7923 23.4778 7.45304 24 5.8886 24Z" fill="#FF9052"/>
</svg>
