<svg width="28" height="28" viewBox="0 0 28 28" fill="none" xmlns="http://www.w3.org/2000/svg">
<path d="M13.9998 27.3332C12.1554 27.3332 10.4221 26.9832 8.79984 26.2832C7.17761 25.5832 5.7665 24.6332 4.5665 23.4332C3.3665 22.2332 2.4165 20.8221 1.7165 19.1998C1.0165 17.5776 0.666504 15.8443 0.666504 13.9998C0.666504 12.1554 1.0165 10.4221 1.7165 8.79984C2.4165 7.17761 3.3665 5.7665 4.5665 4.5665C5.7665 3.3665 7.17761 2.4165 8.79984 1.7165C10.4221 1.0165 12.1554 0.666504 13.9998 0.666504C15.8443 0.666504 17.5776 1.0165 19.1998 1.7165C20.8221 2.4165 22.2332 3.3665 23.4332 4.5665C24.6332 5.7665 25.5832 7.17761 26.2832 8.79984C26.9832 10.4221 27.3332 12.1554 27.3332 13.9998C27.3332 15.8443 26.9832 17.5776 26.2832 19.1998C25.5832 20.8221 24.6332 22.2332 23.4332 23.4332C22.2332 24.6332 20.8221 25.5832 19.1998 26.2832C17.5776 26.9832 15.8443 27.3332 13.9998 27.3332ZM10.1332 23.9332L11.7332 20.2665C10.7998 19.9332 9.99428 19.4165 9.3165 18.7165C8.63873 18.0165 8.11095 17.1998 7.73317 16.2665L4.0665 17.7998C4.57761 19.2221 5.3665 20.4665 6.43317 21.5332C7.49984 22.5998 8.73317 23.3998 10.1332 23.9332ZM7.73317 11.7332C8.11095 10.7998 8.63873 9.98317 9.3165 9.28317C9.99428 8.58317 10.7998 8.0665 11.7332 7.73317L10.1998 4.0665C8.77761 4.59984 7.53317 5.39984 6.4665 6.4665C5.39984 7.53317 4.59984 8.77761 4.0665 10.1998L7.73317 11.7332ZM13.9998 17.9998C15.1109 17.9998 16.0554 17.6109 16.8332 16.8332C17.6109 16.0554 17.9998 15.1109 17.9998 13.9998C17.9998 12.8887 17.6109 11.9443 16.8332 11.1665C16.0554 10.3887 15.1109 9.99984 13.9998 9.99984C12.8887 9.99984 11.9443 10.3887 11.1665 11.1665C10.3887 11.9443 9.99984 12.8887 9.99984 13.9998C9.99984 15.1109 10.3887 16.0554 11.1665 16.8332C11.9443 17.6109 12.8887 17.9998 13.9998 17.9998ZM17.8665 23.9332C19.2665 23.3998 20.4943 22.6054 21.5498 21.5498C22.6054 20.4943 23.3998 19.2665 23.9332 17.8665L20.2665 16.2665C19.9332 17.1998 19.4221 18.0054 18.7332 18.6832C18.0443 19.3609 17.2443 19.8887 16.3332 20.2665L17.8665 23.9332ZM20.2665 11.6665L23.9332 10.1332C23.3998 8.73317 22.6054 7.50539 21.5498 6.44984C20.4943 5.39428 19.2665 4.59984 17.8665 4.0665L16.3332 7.79984C17.2443 8.13317 18.0332 8.63873 18.6998 9.3165C19.3665 9.99428 19.8887 10.7776 20.2665 11.6665Z" fill="#FF9052"/>
</svg>
