<svg width="24" height="14" viewBox="0 0 24 14" fill="none" xmlns="http://www.w3.org/2000/svg">
<path d="M1.14996 13.5627C0.916632 13.3294 0.804826 13.0523 0.814548 12.7315C0.82427 12.4106 0.936076 12.1433 1.14996 11.9294L7.30413 5.68773C7.75135 5.24051 8.30552 5.01689 8.96663 5.01689C9.62774 5.01689 10.1819 5.24051 10.6291 5.68773L13.6333 8.72106L19.7 2.71273H17.8333C17.5027 2.71273 17.2257 2.60092 17.002 2.37731C16.7784 2.1537 16.6666 1.87662 16.6666 1.54606C16.6666 1.21551 16.7784 0.938422 17.002 0.714811C17.2257 0.4912 17.5027 0.379395 17.8333 0.379395H22.5C22.8305 0.379395 23.1076 0.4912 23.3312 0.714811C23.5548 0.938422 23.6666 1.21551 23.6666 1.54606V6.21273C23.6666 6.54328 23.5548 6.82037 23.3312 7.04398C23.1076 7.26759 22.8305 7.37939 22.5 7.37939C22.1694 7.37939 21.8923 7.26759 21.6687 7.04398C21.4451 6.82037 21.3333 6.54328 21.3333 6.21273V4.34606L15.2958 10.3836C14.8486 10.8308 14.2944 11.0544 13.6333 11.0544C12.9722 11.0544 12.418 10.8308 11.9708 10.3836L8.96663 7.37939L2.7833 13.5627C2.56941 13.7766 2.29719 13.8836 1.96663 13.8836C1.63608 13.8836 1.36385 13.7766 1.14996 13.5627Z" fill="#FF9052"/>
</svg>
