<svg width="516" height="453" viewBox="0 0 516 453" fill="none" xmlns="http://www.w3.org/2000/svg">
<g clip-path="url(#clip0_21_22)">
<g style="mix-blend-mode:plus-darker">
<path d="M131.505 132.602C125.606 134.749 119.712 151.805 117.502 160.065L145.935 166.706C145.114 160.835 143.433 147.604 143.27 141.651C143.067 134.21 138.878 129.918 131.505 132.602Z" fill="#EAEAEA"/>
<path d="M110.787 137.816C105.38 142.448 98.4072 156.979 95.5964 163.666L153.882 189.07C155.65 187.947 158.701 176.378 159.871 163.304C157.189 154.163 149.177 154.681 145.506 156.083C144.45 149.056 139.141 145.631 134.313 145.54C130.452 145.467 124.751 153.852 122.384 158.053C121.762 159.111 120.361 160.769 119.731 158.935C125.075 151.398 127.34 147.543 127.511 141.542C127.682 135.541 117.545 132.025 110.787 137.816Z" fill="#EAEAEA"/>
<path d="M107.329 218.454C121.924 243.87 122.819 255.692 137.637 270.385C152.456 285.077 437.261 325.975 437.261 325.975L515.953 334.077C515.953 334.077 576.819 254.819 512.458 257.751C471.12 259.635 161.131 247.711 165.07 228.549C169.009 209.388 160.877 186.164 158.263 174.866L107.999 163.327C105.695 161.363 100.221 155.279 96.7498 146.65C92.4112 135.863 88.4352 100.581 87.1659 94.9538C85.8967 89.327 75.7745 87.3445 75.0193 98.493C74.264 109.641 80.269 149.777 83.4246 169.325C86.5802 188.873 89.0863 186.685 107.329 218.454Z" fill="#EAEAEA"/>
</g>
<path d="M119.206 124.109C113.308 126.256 107.413 143.312 105.203 151.572L133.636 158.213C132.816 152.342 131.134 139.111 130.971 133.158C130.768 125.717 126.579 121.425 119.206 124.109Z" fill="#7DA1FF"/>
<path d="M98.4882 129.323C93.0816 133.955 86.1084 148.486 83.2976 155.173L141.583 180.577C143.352 179.454 146.402 167.885 147.572 154.811C144.891 145.67 136.878 146.188 133.207 147.59C132.151 140.563 126.842 137.138 122.015 137.047C118.153 136.974 112.453 145.359 110.085 149.56C109.463 150.618 108.062 152.276 107.432 150.441C112.776 142.905 115.041 139.05 115.212 133.049C115.383 127.048 105.247 123.532 98.4882 129.323Z" fill="#7DA1FF"/>
<path d="M95.0303 209.961C109.625 235.377 110.52 247.199 125.338 261.892C140.157 276.584 442.261 315.975 442.261 315.975L520.953 324.077C520.953 324.077 581.819 244.819 517.458 247.752C476.12 249.635 148.832 239.218 152.771 220.056C156.71 200.895 148.579 177.671 145.964 166.373L95.6996 154.834C93.3962 152.87 87.9218 146.785 84.4509 138.157C80.1123 127.37 76.1363 92.0876 74.8671 86.4608C73.5978 80.8339 63.4756 78.8514 62.7204 89.9999C61.9651 101.148 67.9701 141.284 71.1257 160.832C74.2814 180.38 76.7874 178.192 95.0303 209.961Z" fill="#7DA1FF"/>
</g>
<defs>
<clipPath id="clip0_21_22">
<rect width="516" height="453" fill="white"/>
</clipPath>
</defs>
</svg>
