<svg width="24" height="24" viewBox="0 0 24 24" fill="none" xmlns="http://www.w3.org/2000/svg">
<path d="M12 23.9999C8.64445 23.9999 5.80556 22.8388 3.48333 20.5166C1.16111 18.1944 0 15.3555 0 11.9999C0 8.93327 1 6.27216 3 4.01661C5 1.76105 7.55556 0.444384 10.6667 0.0666059C10.9556 0.0221615 11.2111 0.0610503 11.4333 0.183273C11.6556 0.305495 11.8333 0.466606 11.9667 0.666606C12.1 0.866606 12.1722 1.09994 12.1833 1.36661C12.1944 1.63327 12.1111 1.88883 11.9333 2.13327C11.5556 2.71105 11.2722 3.32216 11.0833 3.96661C10.8944 4.61105 10.8 5.28883 10.8 5.99994C10.8 7.99994 11.5 9.69994 12.9 11.0999C14.3 12.4999 16 13.1999 18 13.1999C18.6889 13.1999 19.3722 13.0999 20.05 12.8999C20.7278 12.6999 21.3333 12.4222 21.8667 12.0666C22.1111 11.9111 22.3611 11.8388 22.6167 11.8499C22.8722 11.8611 23.1 11.9222 23.3 12.0333C23.5222 12.1444 23.6944 12.3111 23.8167 12.5333C23.9389 12.7555 23.9778 13.0222 23.9333 13.3333C23.6222 16.3999 22.3167 18.9444 20.0167 20.9666C17.7167 22.9888 15.0444 23.9999 12 23.9999Z" fill="#FF9052"/>
</svg>
