<svg width="24" height="24" viewBox="0 0 24 24" fill="none" xmlns="http://www.w3.org/2000/svg">
<path d="M2.66667 24C1.93333 24 1.30556 23.7389 0.783333 23.2167C0.261111 22.6944 0 22.0667 0 21.3333V2.66667C0 1.93333 0.261111 1.30556 0.783333 0.783333C1.30556 0.261111 1.93333 0 2.66667 0H21.3333C22.0667 0 22.6944 0.261111 23.2167 0.783333C23.7389 1.30556 24 1.93333 24 2.66667V21.3333C24 22.0667 23.7389 22.6944 23.2167 23.2167C22.6944 23.7389 22.0667 24 21.3333 24H2.66667ZM2.66667 21.3333H7V15.3333H6.66667C6.28889 15.3333 5.97222 15.2056 5.71667 14.95C5.46111 14.6944 5.33333 14.3778 5.33333 14V2.66667H2.66667V21.3333ZM17 21.3333H21.3333V2.66667H18.6667V14C18.6667 14.3778 18.5389 14.6944 18.2833 14.95C18.0278 15.2056 17.7111 15.3333 17.3333 15.3333H17V21.3333ZM9 21.3333H15V15.3333H14.6667C14.2889 15.3333 13.9722 15.2056 13.7167 14.95C13.4611 14.6944 13.3333 14.3778 13.3333 14V2.66667H10.6667V14C10.6667 14.3778 10.5389 14.6944 10.2833 14.95C10.0278 15.2056 9.71111 15.3333 9.33333 15.3333H9V21.3333Z" fill="#FF9052"/>
</svg>
