<svg width="372" height="279" viewBox="0 0 372 279" fill="none" xmlns="http://www.w3.org/2000/svg">
<g style="mix-blend-mode:plus-darker">
<path d="M107.561 119.311C111.901 124.489 127.344 128.985 137.91 128.985C138.807 130.368 138.978 132.718 132.726 133.569C132.726 133.824 131.225 134.181 125.22 133.569C117.715 132.804 106.016 126.419 103.6 124.489C101.183 122.558 101.863 118.504 103.021 117.346C103.948 116.419 106.884 118.27 107.561 119.311Z" fill="#EAEAEA"/>
</g>
<g style="mix-blend-mode:plus-darker">
<path d="M94.2037 137.833C99.7124 137.699 124.298 131.124 136.674 127.983C132.841 133.353 102.526 146.644 92.8153 145.646C88.1281 145.164 86.2187 143.746 86.5287 140.731C86.6708 139.348 90.4917 137.923 94.2037 137.833Z" fill="#EAEAEA"/>
</g>
<g style="mix-blend-mode:plus-darker">
<path d="M93.6968 154.603C113.799 144.756 125.812 130.26 134.438 126.003C131.277 130.992 126.053 140.859 121.264 144.837C115.565 149.572 99.777 163.844 92.3843 163.28C89.0897 163.029 88.1146 162.262 87.8138 159.777C87.4588 156.843 89.9432 156.441 93.6968 154.603Z" fill="#EAEAEA"/>
</g>
<g style="mix-blend-mode:plus-darker">
<path d="M123.117 187.574C128.327 182.988 131.398 178.702 136.425 174.118C126.881 198.582 186.873 252.637 120.672 273.668C111.407 276.612 103.539 276.675 96.8358 274.344C37.0978 283.007 37.9998 130.5 44.9998 -5L49.4998 -8.5C49.4998 88.5 55.6487 260.02 96.8358 274.344C98.0564 274.167 99.2978 273.942 100.56 273.668C163.604 259.991 114.009 215.625 123.117 187.574Z" fill="#EAEAEA"/>
<path d="M138.732 125.126C146.145 128.369 364.285 163.496 387 168L379.5 199.5C351.5 194.5 245 167 191.24 161.611C166.904 159.171 143.774 164.494 131.204 179.443C116.919 196.431 114.358 187.762 116.146 180.529C118.849 169.598 138.732 162.842 138.732 157.171C138.732 148.94 138.732 144.816 130.239 148.291C123.443 151.07 114.28 167.724 110.548 175.703C107.653 184.462 96.9262 188.862 101.861 175.703C108.812 157.171 129.466 121.072 138.732 125.126Z" fill="#EAEAEA"/>
</g>
<path d="M103.63 114.221C107.97 119.399 123.413 123.895 133.979 123.895C134.876 125.278 135.047 127.628 128.795 128.479C128.795 128.734 127.294 129.091 121.289 128.479C113.784 127.714 102.085 121.329 99.6686 119.399C97.2519 117.468 97.9318 113.414 99.09 112.256C100.017 111.329 102.953 113.18 103.63 114.221Z" fill="#7DA1FF" stroke="#7DA1FF" stroke-width="0.386084"/>
<path d="M101.099 111.653C102.162 111.851 104.377 113.253 103.941 114.424C103.521 115.551 100.477 114.493 100.538 113.932C100.282 113.09 100.036 111.455 101.099 111.653Z" stroke="#E1D6EA" stroke-width="0.386084"/>
<path d="M90.2711 132.743C95.7798 132.609 120.366 126.034 132.742 122.894C128.908 128.263 98.5931 141.554 88.8827 140.556C84.1954 140.074 82.2861 138.656 82.596 135.641C82.7381 134.258 86.5591 132.833 90.2711 132.743Z" fill="#7DA1FF" stroke="#7DA1FF" stroke-width="0.386084"/>
<path d="M89.7657 149.512C109.868 139.666 121.881 125.17 130.507 120.913C127.346 125.902 122.122 135.769 117.333 139.747C111.634 144.482 95.8459 158.754 88.4532 158.19C85.1586 157.938 84.1834 157.172 83.8827 154.687C83.5276 151.753 86.012 151.351 89.7657 149.512Z" fill="#7DA1FF" stroke="#7DA1FF" stroke-width="0.386084"/>
<path d="M134.8 120.036C144.476 127.321 292.597 153.125 312.206 152.081L318.963 182.847C312.528 181.11 239.258 149.43 187.307 156.52C163.074 159.828 139.842 159.404 127.271 174.353C112.986 191.341 110.425 182.672 112.214 175.439C114.916 164.508 134.8 157.752 134.8 152.081C134.8 143.85 134.8 139.726 126.306 143.201C119.511 145.98 110.348 162.634 106.616 170.613C103.72 179.372 92.9937 183.772 97.9288 170.613C104.879 152.081 126.72 113.952 134.8 120.036Z" fill="#7DA1FF" stroke="#7DA1FF" stroke-width="0.386084"/>
<path d="M83.5132 132.472C84.9974 131.9 88.9767 131.544 89.4893 132.836C89.983 134.081 85.2938 135.304 84.8654 134.788C83.7962 134.254 82.0289 133.043 83.5132 132.472Z" stroke="#E1D6EA" stroke-width="0.386084"/>
<path d="M84.7758 153.309C86.2639 152.77 89.5405 150.484 89.152 149.235C88.778 148.033 84.4298 150.153 84.4127 150.794C83.9137 151.857 83.2876 153.849 84.7758 153.309Z" stroke="#E1D6EA" stroke-width="0.386084"/>
<path d="M95.4261 174.95C95.6407 173.338 97.4818 169.792 99.1578 170.219C100.771 170.629 99.4662 175.338 98.6722 175.354C97.5007 175.891 95.2115 176.562 95.4261 174.95Z" stroke="#E1D6EA" stroke-width="0.386084"/>
<mask id="mask0_9176_7204" style="mask-type:alpha" maskUnits="userSpaceOnUse" x="22" y="-71" width="118" height="343">
<path d="M107.669 161.665L123.692 168.465C114.147 192.929 173.87 247.822 107.669 268.854C98.4036 271.798 90.5355 271.861 83.8328 269.53C24.0947 278.192 14.1143 172.042 29.1402 68.0297C37.4031 -43.5923 31.98 -66.9802 29.8672 -70L29.1402 -70C29.1922 -70.4169 29.4717 -70.5652 29.8672 -70L46.5001 -70C42.7245 -13.3467 35.4265 41.247 38.4238 68.0514C45.4625 150.467 42.6457 255.205 83.8328 269.53C85.0534 269.353 86.2948 269.128 87.5571 268.854C150.601 255.177 98.5601 189.717 107.669 161.665Z" fill="#CAA306"/>
<path d="M38.4238 68.0514C46.608 163.879 41.4679 289.886 107.669 268.854C173.87 247.822 114.147 192.929 123.692 168.465L107.669 161.665C98.5601 189.717 150.601 255.177 87.5571 268.854C24.513 282.531 13.8073 174.167 29.1402 68.0297M38.4238 68.0514C38.4238 68.0514 32.7657 68.0382 29.1402 68.0297M38.4238 68.0514C35.4265 41.247 42.7245 -13.3467 46.5001 -70L29.1402 -70C29.4705 -72.6442 38.9496 -64.4844 29.1402 68.0297" stroke="#CAA306" stroke-width="0.614634"/>
</mask>
<g mask="url(#mask0_9176_7204)">
<path d="M107.669 161.665L123.692 168.465C114.147 192.929 173.87 247.822 107.669 268.854C98.4033 271.797 90.5352 271.861 83.8325 269.53C26.6728 277.818 15.0682 180.991 27.336 81.5C27.8894 77.0122 28.493 72.5046 29.1399 68.0297L29.1399 -22.5L43.9999 -17.5L38.4236 68.0514C38.4236 68.0514 39.1509 76.9644 39.4803 81.5C45.2866 161.452 44.8565 255.974 83.8325 269.53C85.0531 269.353 86.2945 269.128 87.5569 268.854C150.601 255.177 98.5598 189.717 107.669 161.665Z" fill="#F3C408"/>
<path d="M38.4236 68.0514C38.4236 68.0514 32.7654 68.0382 29.1399 68.0297M38.4236 68.0514L43.9999 -17.5L29.1399 -22.5C29.1399 -22.5 29.1399 32.6757 29.1399 68.0297M38.4236 68.0514C38.4236 68.0514 39.1509 76.9644 39.4803 81.5M29.1399 68.0297C28.493 72.5046 27.8894 77.0122 27.336 81.5M27.336 81.5C14.8063 183.116 27.1793 281.952 87.5569 268.854C150.601 255.177 98.5598 189.717 107.669 161.665L123.692 168.465C114.147 192.929 173.87 247.822 107.669 268.854C44.5241 288.915 46.2852 175.201 39.4803 81.5M27.336 81.5L39.4803 81.5" stroke="#F3C408" stroke-width="0.614634"/>
<path d="M140.422 225.319L133.625 226.761" stroke="#333333" stroke-width="0.514869" stroke-linecap="round"/>
<path d="M126.979 181.955L120.9 185.355" stroke="#333333" stroke-width="0.514869" stroke-linecap="round"/>
<path d="M142.77 235.693L135.825 235.907" stroke="#333333" stroke-width="0.514869" stroke-linecap="round"/>
<path d="M140.561 245.003L133.616 245.217" stroke="#333333" stroke-width="0.514869" stroke-linecap="round"/>
<path d="M135.83 254.171L128.885 254.385" stroke="#333333" stroke-width="0.514869" stroke-linecap="round"/>
<path d="M128.732 260.677L121.787 260.891" stroke="#333333" stroke-width="0.514869" stroke-linecap="round"/>
<path d="M119.86 265.409L112.915 265.622" stroke="#333333" stroke-width="0.514869" stroke-linecap="round"/>
<path d="M112.171 268.07L105.226 268.284" stroke="#333333" stroke-width="0.514869" stroke-linecap="round"/>
<path d="M104.229 270.767L97.4278 270.07" stroke="#333333" stroke-width="0.514869" stroke-linecap="round"/>
<path d="M95.5513 272.753L89.1704 270.3" stroke="#333333" stroke-width="0.514869" stroke-linecap="round"/>
<path d="M131.423 192.935L125.213 196.092" stroke="#333333" stroke-width="0.514869" stroke-linecap="round"/>
<path d="M125.526 171.013L119.316 174.169" stroke="#333333" stroke-width="0.514869" stroke-linecap="round"/>
<path d="M134.914 203.657L128.414 206.158" stroke="#333333" stroke-width="0.514869" stroke-linecap="round"/>
<path d="M138.122 213.597L131.556 215.911" stroke="#333333" stroke-width="0.514869" stroke-linecap="round"/>
<path d="M39.813 29.8617L46.1121 32.7463" stroke="#333333" stroke-width="0.514869" stroke-linecap="round"/>
<path d="M28.1558 39L34.4548 41.8846" stroke="#333333" stroke-width="0.514869" stroke-linecap="round"/>
<path d="M28.1558 30L34.4548 32.8846" stroke="#333333" stroke-width="0.514869" stroke-linecap="round"/>
<path d="M28.1558 20L34.4548 22.8846" stroke="#333333" stroke-width="0.514869" stroke-linecap="round"/>
<path d="M28.1558 10L34.4548 12.8846" stroke="#333333" stroke-width="0.514869" stroke-linecap="round"/>
<path d="M27.1558 47L33.4548 49.8846" stroke="#333333" stroke-width="0.514869" stroke-linecap="round"/>
<path d="M28.1558 60L34.4548 62.8846" stroke="#333333" stroke-width="0.514869" stroke-linecap="round"/>
<path d="M28.5625 69.3213L35.1556 71.5098" stroke="#333333" stroke-width="0.514869" stroke-linecap="round"/>
<path d="M19.3218 123.667L26.2397 124.478" stroke="#333333" stroke-width="0.514869" stroke-linecap="round"/>
<path d="M21.0835 178.689L27.9141 177.416" stroke="#333333" stroke-width="0.514869" stroke-linecap="round"/>
<path d="M26.3203 79.4742L32.9134 81.6627" stroke="#333333" stroke-width="0.514869" stroke-linecap="round"/>
<path d="M19.3555 134.057L26.2734 134.868" stroke="#333333" stroke-width="0.514869" stroke-linecap="round"/>
<path d="M22.7246 188.576L29.5553 187.302" stroke="#333333" stroke-width="0.514869" stroke-linecap="round"/>
<path d="M23.8271 91.063L30.5075 92.9882" stroke="#333333" stroke-width="0.514869" stroke-linecap="round"/>
<path d="M19.4604 145.902L26.4059 146.438" stroke="#333333" stroke-width="0.514869" stroke-linecap="round"/>
<path d="M24.8975 199.829L31.666 198.285" stroke="#333333" stroke-width="0.514869" stroke-linecap="round"/>
<path d="M22.2334 102.219L29.0863 103.448" stroke="#333333" stroke-width="0.514869" stroke-linecap="round"/>
<path d="M20.3467 157.143L27.3081 156.962" stroke="#333333" stroke-width="0.514869" stroke-linecap="round"/>
<path d="M27.6216 210.275L34.1753 208.043" stroke="#333333" stroke-width="0.514869" stroke-linecap="round"/>
<path d="M20.7812 112.557L27.6681 113.589" stroke="#333333" stroke-width="0.514869" stroke-linecap="round"/>
<path d="M21.1938 167.554L28.1455 167.174" stroke="#333333" stroke-width="0.514869" stroke-linecap="round"/>
<path d="M38.9043 226.674L32.6893 229.662" stroke="#333333" stroke-width="0.514869" stroke-linecap="round"/>
<path d="M42.7231 236.787L36.5081 239.775" stroke="#333333" stroke-width="0.514869" stroke-linecap="round"/>
<path d="M47.9224 246.735L41.7073 249.723" stroke="#333333" stroke-width="0.514869" stroke-linecap="round"/>
<path d="M53.9814 255.856L47.7664 258.844" stroke="#333333" stroke-width="0.514869" stroke-linecap="round"/>
<path d="M62.6196 261.673L56.4046 264.661" stroke="#333333" stroke-width="0.514869" stroke-linecap="round"/>
<path d="M69.7085 266.658L63.4935 269.646" stroke="#333333" stroke-width="0.514869" stroke-linecap="round"/>
<path d="M78.3452 271.647L72.1302 274.635" stroke="#333333" stroke-width="0.514869" stroke-linecap="round"/>
<path d="M30.04 219.113L35.3595 216.714" stroke="#333333" stroke-width="0.514869" stroke-linecap="round"/>
</g>
<path d="M134.8 120.035C144.476 127.321 360.391 161.044 380 160V193C372.495 198.358 237.417 161.644 187.308 156.52C162.977 154.032 139.842 159.404 127.272 174.353C112.987 191.341 110.426 182.672 112.214 175.438C114.917 164.508 134.8 157.751 134.8 152.08C134.8 143.849 134.8 139.726 126.307 143.2L134.8 120.035Z" fill="#7DA1FF" stroke="#7DA1FF" stroke-width="0.386084"/>
<path d="M115.644 182.872C116.07 181.241 118.608 178.155 120.52 179.222C122.361 180.249 120.323 184.765 119.393 184.49C117.966 184.631 115.218 184.504 115.644 182.872Z" stroke="#E1D6EA" stroke-width="0.386084"/>
</svg>
