<svg width="23" height="28" viewBox="0 0 23 28" fill="none" xmlns="http://www.w3.org/2000/svg">
<path d="M4.66667 5.99984C3.93333 5.99984 3.30556 5.73873 2.78333 5.2165C2.26111 4.69428 2 4.0665 2 3.33317C2 2.59984 2.26111 1.97206 2.78333 1.44984C3.30556 0.927615 3.93333 0.666504 4.66667 0.666504C5.4 0.666504 6.02778 0.927615 6.55 1.44984C7.07222 1.97206 7.33333 2.59984 7.33333 3.33317C7.33333 4.0665 7.07222 4.69428 6.55 5.2165C6.02778 5.73873 5.4 5.99984 4.66667 5.99984ZM18.6667 12.6665C18.1111 12.6665 17.6389 12.4721 17.25 12.0832C16.8611 11.6943 16.6667 11.2221 16.6667 10.6665C16.6667 10.1109 16.8611 9.63873 17.25 9.24984C17.6389 8.86095 18.1111 8.6665 18.6667 8.6665C19.2222 8.6665 19.6944 8.86095 20.0833 9.24984C20.4722 9.63873 20.6667 10.1109 20.6667 10.6665C20.6667 11.2221 20.4722 11.6943 20.0833 12.0832C19.6944 12.4721 19.2222 12.6665 18.6667 12.6665ZM2 25.9998V17.9998H1.33333C0.955555 17.9998 0.638889 17.8721 0.383333 17.6165C0.127778 17.3609 0 17.0443 0 16.6665V9.99984C0 9.2665 0.261111 8.63873 0.783333 8.1165C1.30556 7.59428 1.93333 7.33317 2.66667 7.33317H6.66667C7.15556 7.33317 7.6 7.44984 8 7.68317C8.4 7.9165 8.72222 8.24428 8.96667 8.6665L13.7333 16.8998L15.1 14.8665C15.2778 14.5998 15.5167 14.3887 15.8167 14.2332C16.1167 14.0776 16.4333 13.9998 16.7667 13.9998H20.6667C21.2222 13.9998 21.6944 14.1943 22.0833 14.5832C22.4722 14.9721 22.6667 15.4443 22.6667 15.9998V19.3332C22.6667 19.6887 22.5056 19.9387 22.1833 20.0832C21.8611 20.2276 21.5778 20.4221 21.3333 20.6665V25.9998C21.3333 26.3776 21.2056 26.6943 20.95 26.9498C20.6944 27.2054 20.3778 27.3332 20 27.3332H17.3333C16.9556 27.3332 16.6389 27.2054 16.3833 26.9498C16.1278 26.6943 16 26.3776 16 25.9998V17.8665L15.3333 18.7998C15.2222 18.9776 15.0722 19.1109 14.8833 19.1998C14.6944 19.2887 14.5 19.3332 14.3 19.3332H12.7667C12.5222 19.3332 12.3056 19.2776 12.1167 19.1665C11.9278 19.0554 11.7778 18.8998 11.6667 18.6998L8.66667 13.4665V25.9998C8.66667 26.3776 8.53889 26.6943 8.28333 26.9498C8.02778 27.2054 7.71111 27.3332 7.33333 27.3332H3.33333C2.95556 27.3332 2.63889 27.2054 2.38333 26.9498C2.12778 26.6943 2 26.3776 2 25.9998Z" fill="#FF9052"/>
</svg>
