<svg width="657" height="212" viewBox="0 0 657 212" fill="none" xmlns="http://www.w3.org/2000/svg">
<g clip-path="url(#clip0_24_15)">
<path d="M149.335 146.302C154.795 149.211 171.184 142.303 178.696 138.484L164.837 113.277C161.072 117.742 152.478 127.685 148.22 131.723C142.898 136.77 142.51 142.665 149.335 146.302Z" fill="#EAEAEA"/>
<path d="M166.805 158.051C185.033 162.133 189.011 154.508 195.765 152.166L176.001 92.7295C174.012 92.1728 163.519 97.5532 153.162 105.302C148.225 113.286 153.883 118.816 157.329 120.583C152.873 125.983 153.858 132.129 156.971 135.726C159.462 138.604 169.365 137.261 174.004 136.231C175.191 135.99 177.329 135.925 176.399 137.595C167.353 138.639 163.033 139.517 158.52 143.343C154.008 147.168 158.244 156.134 166.805 158.051Z" fill="#EAEAEA"/>
<path d="M405.841 160.83C355.432 149.973 259.462 123.79 239.259 136.329C222.523 146.717 216.412 141.806 205.615 157.542C199.119 167.009 189.268 170.402 186.856 171.686C180.114 175.276 173.287 164.402 173.853 160.83C174.213 158.556 177.031 156.718 182.72 148.711C185.13 145.318 186.072 144.601 186.383 144.508C186.312 144.394 186.236 144.123 186.222 143.53L163 99.2461C169.183 89.9247 181.144 88.8479 198.959 85.0922C219.88 80.6821 318.106 90.2555 405.842 102.534C454.836 109.39 656 136.329 656 136.329V212C656 212 456.25 171.686 405.841 160.83Z" fill="#EAEAEA"/>
<path d="M218.566 160.531L12.2398 15.5518C7.73589 12.7141 1.43937 21.4699 5.09629 24.1206C73.4206 73.6467 210.909 168.52 213.675 170.519C216.758 172.748 223.428 163.976 218.566 160.531Z" fill="#EAEAEA"/>
<path d="M12.2398 15.5518C7.73589 12.7141 1.43937 21.4699 5.09629 24.1206C8.19407 26.3665 17.9791 33.3772 21.3423 35.796C18.7849 33.9549 25.0762 24.6444 28.1212 26.7843L12.2398 15.5518Z" fill="#EAEAEA" stroke="#EAEAEA"/>
<path d="M214.566 145.538L8.23931 0.558989C3.7354 -2.27864 -2.56112 6.47713 1.0958 9.12785C69.4201 58.654 206.909 153.527 209.674 155.526C212.757 157.755 219.427 148.983 214.566 145.538Z" fill="#333333"/>
<path d="M8.23931 0.558989C3.7354 -2.27864 -2.56112 6.47713 1.0958 9.12785C4.19359 11.3738 13.9786 18.3844 17.3418 20.8032C14.7845 18.9621 21.0757 9.65161 24.1207 11.7916L8.23931 0.558989Z" fill="white" stroke="#7DA1FF"/>
<path d="M145.334 131.309C150.794 134.219 167.183 127.31 174.695 123.492L160.836 98.2838C157.072 102.75 148.478 112.692 144.219 116.73C138.898 121.778 138.51 127.673 145.334 131.309Z" fill="#7DA1FF"/>
<path d="M162.804 143.058C181.032 147.14 185.011 139.515 191.765 137.173L172 77.7368C170.012 77.1801 159.519 82.5605 149.161 90.3097C144.225 98.2929 149.882 103.823 153.329 105.59C148.872 110.991 152.971 120.733 152.971 120.733C155.461 123.612 165.364 122.268 170.004 121.238C171.19 120.997 173.328 120.932 172.398 122.602C163.352 123.647 159.033 124.524 154.52 128.35C150.007 132.176 154.244 141.141 162.804 143.058Z" fill="#7DA1FF"/>
<path d="M403.766 145.86C352.839 135.008 255.882 108.838 235.472 121.371C218.564 131.753 212.391 126.845 201.482 142.574C194.919 152.036 184.967 155.427 182.53 156.711C175.719 160.299 168.822 149.43 169.394 145.86C169.758 143.587 172.604 141.75 178.352 133.747C180.787 130.355 181.738 129.638 182.053 129.546C181.981 129.432 181.904 129.16 181.89 128.568L158.429 84.3057C164.676 74.9889 176.76 73.9125 194.758 70.1587C215.894 65.7506 315.129 75.3194 403.767 87.5916C453.265 94.445 656.496 121.371 656.496 121.371V197.005C656.496 197.005 454.693 156.711 403.766 145.86Z" fill="#7DA1FF"/>
</g>
<defs>
<clipPath id="clip0_24_15">
<rect width="656.496" height="212" fill="white"/>
</clipPath>
</defs>
</svg>
