<svg width="20" height="28" viewBox="0 0 20 28" fill="none" xmlns="http://www.w3.org/2000/svg">
<path d="M10 27.3332C9.26667 27.3332 8.63889 27.0721 8.11667 26.5498C7.59444 26.0276 7.33333 25.3998 7.33333 24.6665H12.6667C12.6667 25.3998 12.4056 26.0276 11.8833 26.5498C11.3611 27.0721 10.7333 27.3332 10 27.3332ZM6 23.3332C5.62222 23.3332 5.30556 23.2054 5.05 22.9498C4.79444 22.6943 4.66667 22.3776 4.66667 21.9998C4.66667 21.6221 4.79444 21.3054 5.05 21.0498C5.30556 20.7943 5.62222 20.6665 6 20.6665H14C14.3778 20.6665 14.6944 20.7943 14.95 21.0498C15.2056 21.3054 15.3333 21.6221 15.3333 21.9998C15.3333 22.3776 15.2056 22.6943 14.95 22.9498C14.6944 23.2054 14.3778 23.3332 14 23.3332H6ZM5 19.3332C3.46667 18.4221 2.25 17.1998 1.35 15.6665C0.45 14.1332 0 12.4665 0 10.6665C0 7.88873 0.972222 5.52761 2.91667 3.58317C4.86111 1.63873 7.22222 0.666504 10 0.666504C12.7778 0.666504 15.1389 1.63873 17.0833 3.58317C19.0278 5.52761 20 7.88873 20 10.6665C20 12.4665 19.55 14.1332 18.65 15.6665C17.75 17.1998 16.5333 18.4221 15 19.3332H5ZM5.8 16.6665H14.2C15.2 15.9554 15.9722 15.0776 16.5167 14.0332C17.0611 12.9887 17.3333 11.8665 17.3333 10.6665C17.3333 8.62206 16.6222 6.88873 15.2 5.4665C13.7778 4.04428 12.0444 3.33317 10 3.33317C7.95556 3.33317 6.22222 4.04428 4.8 5.4665C3.37778 6.88873 2.66667 8.62206 2.66667 10.6665C2.66667 11.8665 2.93889 12.9887 3.48333 14.0332C4.02778 15.0776 4.8 15.9554 5.8 16.6665Z" fill="#FF9052"/>
</svg>
