<svg width="28" height="24" viewBox="0 0 28 24" fill="none" xmlns="http://www.w3.org/2000/svg">
<path d="M23.3332 24C22.4665 24 21.6887 23.75 20.9998 23.25C20.3109 22.75 19.8332 22.1111 19.5665 21.3333H12.6665C11.1998 21.3333 9.94428 20.8111 8.89984 19.7667C7.85539 18.7222 7.33317 17.4667 7.33317 16C7.33317 14.5333 7.85539 13.2778 8.89984 12.2333C9.94428 11.1889 11.1998 10.6667 12.6665 10.6667H15.3332C16.0665 10.6667 16.6943 10.4056 17.2165 9.88333C17.7387 9.36111 17.9998 8.73333 17.9998 8C17.9998 7.26667 17.7387 6.63889 17.2165 6.11667C16.6943 5.59444 16.0665 5.33333 15.3332 5.33333H8.43317C8.14428 6.11111 7.66095 6.75 6.98317 7.25C6.30539 7.75 5.53317 8 4.6665 8C3.55539 8 2.61095 7.61111 1.83317 6.83333C1.05539 6.05556 0.666504 5.11111 0.666504 4C0.666504 2.88889 1.05539 1.94444 1.83317 1.16667C2.61095 0.388889 3.55539 0 4.6665 0C5.53317 0 6.30539 0.25 6.98317 0.75C7.66095 1.25 8.14428 1.88889 8.43317 2.66667H15.3332C16.7998 2.66667 18.0554 3.18889 19.0998 4.23333C20.1443 5.27778 20.6665 6.53333 20.6665 8C20.6665 9.46667 20.1443 10.7222 19.0998 11.7667C18.0554 12.8111 16.7998 13.3333 15.3332 13.3333H12.6665C11.9332 13.3333 11.3054 13.5944 10.7832 14.1167C10.2609 14.6389 9.99984 15.2667 9.99984 16C9.99984 16.7333 10.2609 17.3611 10.7832 17.8833C11.3054 18.4056 11.9332 18.6667 12.6665 18.6667H19.5665C19.8554 17.8889 20.3387 17.25 21.0165 16.75C21.6943 16.25 22.4665 16 23.3332 16C24.4443 16 25.3887 16.3889 26.1665 17.1667C26.9443 17.9444 27.3332 18.8889 27.3332 20C27.3332 21.1111 26.9443 22.0556 26.1665 22.8333C25.3887 23.6111 24.4443 24 23.3332 24ZM4.6665 5.33333C5.04428 5.33333 5.36095 5.20556 5.6165 4.95C5.87206 4.69444 5.99984 4.37778 5.99984 4C5.99984 3.62222 5.87206 3.30556 5.6165 3.05C5.36095 2.79444 5.04428 2.66667 4.6665 2.66667C4.28873 2.66667 3.97206 2.79444 3.7165 3.05C3.46095 3.30556 3.33317 3.62222 3.33317 4C3.33317 4.37778 3.46095 4.69444 3.7165 4.95C3.97206 5.20556 4.28873 5.33333 4.6665 5.33333Z" fill="#FF9052"/>
</svg>
